<svg width="200" height="200" viewBox="0 0 200 200" fill="none" xmlns="http://www.w3.org/2000/svg">
  <path d="M63.5 40C49.5 40 38 51.5 38 65.5C38 79.5 49.5 91 63.5 91C77.5 91 89 79.5 89 65.5C89 51.5 77.5 40 63.5 40ZM63.5 78C56.6 78 51 72.4 51 65.5C51 58.6 56.6 53 63.5 53C70.4 53 76 58.6 76 65.5C76 72.4 70.4 78 63.5 78Z" fill="#F47B54"/>
  <path d="M137.5 109C123.5 109 112 120.5 112 134.5C112 148.5 123.5 160 137.5 160C151.5 160 163 148.5 163 134.5C163 120.5 151.5 109 137.5 109ZM137.5 147C130.6 147 125 141.4 125 134.5C125 127.6 130.6 122 137.5 122C144.4 122 150 127.6 150 134.5C150 141.4 144.4 147 137.5 147Z" fill="#F47B54"/>
  <path d="M89 65.5C89 79.5 77.5 91 63.5 91C49.5 91 38 79.5 38 65.5C38 51.5 49.5 40 63.5 40C77.5 40 89 51.5 89 65.5ZM76 65.5C76 58.6 70.4 53 63.5 53C56.6 53 51 58.6 51 65.5C51 72.4 56.6 78 63.5 78C70.4 78 76 72.4 76 65.5Z" fill="#F47B54"/>
  <path d="M163 134.5C163 148.5 151.5 160 137.5 160C123.5 160 112 148.5 112 134.5C112 120.5 123.5 109 137.5 109C151.5 109 163 120.5 163 134.5ZM150 134.5C150 127.6 144.4 122 137.5 122C130.6 122 125 127.6 125 134.5C125 141.4 130.6 147 137.5 147C144.4 147 150 141.4 150 134.5Z" fill="#F47B54"/>
  <path d="M63.5 91C77.5 91 89 79.5 89 65.5C89 51.5 77.5 40 63.5 40C49.5 40 38 51.5 38 65.5C38 79.5 49.5 91 63.5 91ZM63.5 53C70.4 53 76 58.6 76 65.5C76 72.4 70.4 78 63.5 78C56.6 78 51 72.4 51 65.5C51 58.6 56.6 53 63.5 53Z" fill="#F47B54"/>
  <path d="M137.5 160C151.5 160 163 148.5 163 134.5C163 120.5 151.5 109 137.5 109C123.5 109 112 120.5 112 134.5C112 148.5 123.5 160 137.5 160ZM137.5 122C144.4 122 150 127.6 150 134.5C150 141.4 144.4 147 137.5 147C130.6 147 125 141.4 125 134.5C125 127.6 130.6 122 137.5 122Z" fill="#F47B54"/>
  <path d="M112 134.5C112 120.5 123.5 109 137.5 109C151.5 109 163 120.5 163 134.5C163 148.5 151.5 160 137.5 160C123.5 160 112 148.5 112 134.5ZM125 134.5C125 141.4 130.6 147 137.5 147C144.4 147 150 141.4 150 134.5C150 127.6 144.4 122 137.5 122C130.6 122 125 127.6 125 134.5Z" fill="#F47B54"/>
  <path d="M38 65.5C38 51.5 49.5 40 63.5 40C77.5 40 89 51.5 89 65.5C89 79.5 77.5 91 63.5 91C49.5 91 38 79.5 38 65.5ZM51 65.5C51 72.4 56.6 78 63.5 78C70.4 78 76 72.4 76 65.5C76 58.6 70.4 53 63.5 53C56.6 53 51 58.6 51 65.5Z" fill="#F47B54"/>
</svg>